<svg xmlns="http://www.w3.org/2000/svg" width="150" height="40" viewBox="0 0 512 150" fill="none">
  <g>
    <circle cx="60" cy="75" r="60" fill="#1DB954"/>
    <path d="M97.1 105.6c-1.5 2.5-4.7 3.3-7.2 1.8-19.7-11.8-44.5-14.5-73.7-8-2.9.7-5.9-1.2-6.6-4.1s1.2-5.9 4.1-6.6c32.9-7.3 61.5-4.2 84.4 9.3 2.5 1.5 3.3 4.7 1.8 7.6zM105.9 84.2c-1.8 3-5.5 3.9-8.5 2.1-22.6-13.7-57.1-17.7-83.7-9.8-3.3 1-6.8-.8-7.8-4.1-1-3.3.8-6.8 4.1-7.8 30.4-9.1 70.3-4.6 97.6 11.2 3 1.9 3.9 5.6 2.3 8.4zM108.7 62.4c-26.4-16.1-69.9-17.6-95.4-9.7-4 .9-8.1-1.2-9.3-5.2-1.2-4 .9-8.1 5.2-9.3 29.7-9 78-7.2 109.4 11.5 3.6 2.1 4.7 6.9 2.6 10.5-2 3.5-6.7 4.7-10.1 2.2z" fill="#fff"/>
  </g>
  <text x="140" y="95" fill="#FFFFFF" font-family="Arial, sans-serif" font-size="60" font-weight="bold">Spotify</text>
</svg>
